<?xml version="1.0" standalone="no"?>
<!DOCTYPE svg PUBLIC "-//W3C//DTD SVG 20010904//EN"
 "http://www.w3.org/TR/2001/REC-SVG-20010904/DTD/svg10.dtd">
<svg version="1.0" xmlns="http://www.w3.org/2000/svg"
 width="225.000000pt" height="225.000000pt" viewBox="0 0 225.000000 225.000000"
 preserveAspectRatio="xMidYMid meet">

<g transform="translate(0.000000,225.000000) scale(0.100000,-0.100000)"
fill="#000000" stroke="none">
<path d="M1045 2010 c-644 -159 -974 -244 -981 -255 -9 -12 -4 -48 22 -156
l34 -141 0 -647 c0 -603 2 -649 19 -686 23 -51 80 -101 130 -115 27 -7 320
-10 915 -8 l874 3 44 30 c23 17 54 51 68 75 l25 45 3 654 c2 579 1 656 -13
677 l-15 24 -818 1 -817 1 475 118 c261 65 618 153 793 195 244 60 320 83 328
96 7 13 -1 59 -27 161 -37 149 -46 169 -73 167 -9 0 -452 -108 -986 -239z
m959 108 c3 -17 4 -33 2 -35 -6 -6 -76 38 -76 47 0 8 21 14 56 19 6 0 14 -13
18 -31z m-107 -79 c57 -34 105 -64 108 -68 2 -4 -37 -17 -86 -29 l-91 -22
-111 67 c-65 39 -105 69 -96 72 32 10 145 39 158 40 8 1 61 -27 118 -60z
m-318 -71 c47 -28 94 -57 104 -64 15 -10 -2 -17 -116 -45 l-135 -33 -105 64
c-58 36 -104 66 -102 68 7 7 219 60 244 61 13 1 62 -22 110 -51z m-387 -100
c57 -33 107 -64 112 -69 4 -4 -34 -17 -86 -29 l-94 -22 -107 64 c-58 35 -107
66 -107 69 0 6 134 44 167 48 7 0 58 -27 115 -61z m-305 -79 c57 -34 101 -65
96 -69 -4 -4 -63 -21 -130 -37 l-122 -30 -109 66 -110 67 121 31 c67 17 128
31 136 32 8 1 61 -27 118 -60z m-395 -95 c75 -45 106 -69 97 -74 -8 -4 -48
-16 -91 -25 l-76 -18 -106 62 c-58 35 -106 66 -106 70 0 4 37 17 83 28 45 11
84 21 86 22 2 1 53 -29 113 -65z m-254 -109 c28 -16 52 -33 52 -37 0 -5 -65
-20 -87 -19 -4 0 -13 21 -19 46 -7 25 -9 45 -6 43 4 -2 31 -16 60 -33z m308
-256 l89 -89 -100 0 -100 0 -87 87 c-49 48 -88 90 -88 93 0 3 44 4 98 2 l99
-3 89 -90z m399 1 l90 -90 -140 0 -140 0 -90 90 -90 90 140 0 140 0 90 -90z
m320 0 l90 -90 -95 0 -95 0 -90 90 -90 90 95 0 95 0 90 -90z m410 0 l90 -90
-140 0 -140 0 -90 90 -90 90 140 0 140 0 90 -90z m320 0 l90 -90 -100 0 -100
0 -90 90 -90 90 100 0 100 0 90 -90z m115 50 c0 -22 -1 -40 -3 -40 -2 0 -21
18 -42 40 l-39 40 42 0 42 0 0 -40z m-1845 -90 l49 -50 -52 0 -52 0 0 50 c0
28 1 50 3 50 1 0 25 -22 52 -50z m1845 -620 c0 -528 -1 -534 -59 -564 -27 -14
-130 -16 -902 -16 l-871 0 -34 34 -34 34 0 496 0 496 950 0 950 0 0 -480z"/>
<path d="M317 1042 c-15 -17 -17 -61 -17 -425 0 -355 2 -408 16 -421 14 -14
104 -16 843 -16 630 0 830 3 839 12 9 9 12 118 12 430 0 483 12 438 -115 438
-87 0 -115 -11 -115 -43 0 -37 19 -47 87 -47 l63 0 0 -350 0 -350 -770 0 -770
0 0 350 0 350 453 0 c339 0 456 3 465 12 18 18 14 56 -7 68 -13 6 -186 10
-494 10 -446 0 -475 -1 -490 -18z"/>
<path d="M1536 1041 c-23 -26 -13 -59 21 -67 43 -11 69 38 37 70 -21 21 -37
20 -58 -3z"/>
<path d="M1073 852 c-12 -2 -34 -17 -48 -33 -25 -30 -25 -33 -25 -200 l0 -169
29 -32 c46 -51 75 -45 237 48 114 66 142 87 157 117 16 32 16 39 4 70 -13 29
-37 47 -153 114 -143 83 -163 91 -201 85z m29 -228 c-3 -120 -1 -136 12 -131
23 9 20 0 -4 -13 -20 -10 -20 -8 -20 135 0 80 3 145 8 145 4 0 6 -61 4 -136z
m73 96 c3 -6 -1 -7 -9 -4 -18 7 -21 14 -7 14 6 0 13 -4 16 -10z"/>
</g>
</svg>
